<svg width="55" height="50" viewBox="0 0 55 50" fill="none" xmlns="http://www.w3.org/2000/svg">
<path d="M54.3617 35.7739C52.2237 35.3821 50.6118 36.7861 48.5931 34.694C48.0656 34.1477 47.3037 34.4557 47.062 35.121C45.3295 39.8962 41.7254 37.5892 40.0741 34.2445C39.7541 33.5971 38.8483 33.6532 38.5152 34.2445C37.3738 37.1933 35.1759 37.5565 31.921 35.334C31.4041 34.8565 30.556 35.0171 30.3616 35.7687C28.9446 41.2505 23.9928 39.7445 22.4672 35.24C22.3905 35.0131 22.2252 34.903 22.0536 34.8833C21.7065 34.4245 20.9204 34.287 20.6495 34.9305C18.698 39.5629 15.0759 38.8538 12.8214 34.9366C12.4144 34.2297 11.5743 34.4748 11.3075 35.1456C9.41145 39.9113 3.88689 39.8018 3.98526 34.0731C3.99606 33.4386 3.09666 33.3141 2.94457 33.9245C1.16503 41.064 9.43714 42.3021 12.3026 37.0614C15.2624 40.6157 19.7007 41.3451 21.8174 36.5616C23.6232 41.8079 29.5223 42.8398 31.7149 37.6197C34.4993 39.5842 37.1516 39.2756 39.2441 36.4846C41.7961 40.3324 46.3433 41.7499 48.3619 37.0019C50.2145 38.3257 51.4434 37.3996 54.1238 37.6265C55.1242 37.7116 55.3528 35.9558 54.3617 35.7739Z" fill="#00B2A0"/>
<path d="M51.0121 43.4668C50.1734 44.922 49.8835 46.226 48.0871 46.9373C45.8758 47.8135 43.6747 45.7229 42.585 44.0088C42.209 43.4172 41.297 43.3034 40.9458 44.0088C39.4066 47.1007 35.9975 46.3457 34.5429 43.3617C34.1853 42.6276 32.9759 42.7586 32.8273 43.5984C32.0099 48.2241 28.3399 48.7137 25.8819 45.361C26.1502 44.4583 24.7508 43.8438 24.3692 44.7274C22.3059 49.5069 18.2777 48.9729 15.9398 44.7077C15.534 43.9675 14.625 44.2271 14.3628 44.9253C12.4627 49.9888 9.50324 47.5801 7.84251 44.0948C7.51906 43.4156 6.5966 43.6508 6.4016 44.2936C5.49402 47.2872 3.99881 47.8461 1.47984 48.6206C1.00547 48.7667 1.07874 49.6361 1.6004 49.5627C4.48661 49.1564 6.06297 48.6141 7.24262 46.3441C9.66613 50.3409 13.0495 51.1572 15.3197 46.9518C18.2634 50.8434 22.9922 51.287 25.3352 46.657C27.9376 50.3957 32.3021 50.2117 34.0498 46.1376C36.3046 48.9464 39.5864 49.3411 41.8569 46.1977C45.2359 49.7856 52.1465 50.5887 52.3929 43.8626C52.4235 43.0605 51.3831 42.8228 51.0121 43.4668Z" fill="#00B2A0"/>
<path d="M15.5216 7.50507C14.9559 7.67895 14.7329 8.12751 14.7501 8.5804C10.7415 9.20593 8.14631 13.383 7.83659 17.5845C7.41301 23.3329 12.0364 26.7097 17.0493 26.2809C22.1748 25.8428 25.5091 21.0025 25.3584 15.8007C25.2078 10.605 20.5473 5.95773 15.5216 7.50507ZM16.3562 23.653C12.6772 23.9717 10.2972 21.3478 10.3675 17.5845C10.4414 13.6401 13.3031 11.0391 16.6204 9.99918C16.6812 9.98006 16.7249 9.94738 16.7743 9.9184C20.0082 10.4511 22.4539 11.7506 22.7974 15.8001C23.1542 20.0006 20.2338 23.3163 16.3562 23.653Z" fill="#00B2A0"/>
<path d="M10.8569 7.33132C10.2535 6.63796 9.585 6.02877 8.90045 5.4276C8.22174 4.83135 7.50187 3.67771 6.54496 3.77205C6.03819 3.822 5.69489 4.16143 5.65957 4.70711C5.59242 5.74267 6.55926 6.25136 7.26249 6.77947C8.06644 7.3828 8.90162 7.92263 9.64776 8.60859C10.4756 9.37008 11.6086 8.19485 10.8569 7.33132Z" fill="#00B2A0"/>
<path d="M5.30958 10.4497C5.63127 10.4907 5.34694 10.4414 5.26199 10.4134C5.13151 10.3699 5.00364 10.3178 4.87608 10.266C4.73158 10.2077 4.58854 10.1448 4.44579 10.0819C4.43615 10.0776 4.4309 10.0755 4.4166 10.0687C4.28056 9.79276 4.04673 9.57048 3.74577 9.4709C3.20834 9.29239 2.39097 8.86602 1.81005 9.05871C1.48164 9.16784 1.13747 9.45486 1.07354 9.83653C1.07354 9.83653 1.07325 9.83808 1.07325 9.83869C1.01253 10.2003 1.0388 10.6708 1.34444 10.9223C1.51463 11.0617 1.71372 11.1604 1.92127 11.2454C1.75313 11.2448 1.88887 11.2532 2.04096 11.2905C2.14868 11.3296 2.25493 11.3697 2.36586 11.4008C2.63326 11.4958 2.90037 11.5923 3.16631 11.6906C3.31898 11.7477 3.47632 11.7526 3.62841 11.7236C4.17518 11.8771 4.7739 12.051 5.30987 12.0165C6.28429 11.9536 6.24255 10.569 5.30958 10.4497Z" fill="#00B2A0"/>
<path d="M3.64 19.2588C3.23073 19.6211 2.75315 19.905 2.28783 20.1772C2.04729 20.3181 1.79857 20.4639 1.54081 20.5666C1.38638 20.628 1.14059 20.5765 1.48038 20.6421C1.31165 20.6098 1.15168 20.6064 0.983827 20.5873C-0.431105 20.426 -0.302368 23.1242 1.25736 22.7222C1.83185 22.5742 2.4189 21.9952 2.90728 21.6244C3.4739 21.1943 4.03964 20.7241 4.50671 20.1741C5.04063 19.5458 4.24164 18.7258 3.64 19.2588Z" fill="#00B2A0"/>
<path d="M7.24528 24.6062C6.76595 25.3831 6.32895 26.1883 5.87297 26.9804C5.37875 27.8383 4.54153 28.4781 4.43177 29.5047C4.36171 30.1601 5.04129 30.4847 5.5431 30.3987C6.5692 30.223 7.06984 28.8437 7.44496 27.9503C7.83204 27.0285 8.06995 26.0616 8.37997 25.1109C8.61818 24.3787 7.61398 24.0081 7.24528 24.6062Z" fill="#00B2A0"/>
<path d="M16.9431 27.3986C16.8421 26.8502 16.0391 26.8764 15.9214 27.3986C15.6126 28.7715 15.2509 30.1326 14.9476 31.5067C14.8743 31.8384 14.9374 32.2222 15.1864 32.4609C15.1455 32.4032 15.1502 32.4146 15.2001 32.4945C15.497 33.0068 16.1208 32.9483 16.4285 32.4945C16.1474 32.9088 16.6276 32.2938 16.6448 32.2623C16.7581 32.0579 16.7677 31.8433 16.7797 31.614C16.8048 31.1392 16.8576 30.6656 16.9005 30.1924C16.9849 29.2697 17.1125 28.3171 16.9431 27.3986Z" fill="#00B2A0"/>
<path d="M27.6074 28.2096C26.8732 27.0973 25.7073 26.3833 25.0399 25.2346C24.5831 24.4478 23.5368 25.1332 23.8898 25.9446C24.1957 26.6478 24.6631 27.2317 25.1456 27.8073C25.3759 28.082 25.6118 28.3502 25.8144 28.6487C26.0908 29.0559 26.2044 29.5134 26.7433 29.5927C27.0533 29.6383 27.4071 29.5735 27.5636 29.2397C27.5782 29.2088 27.5928 29.178 27.6071 29.1469C27.7408 28.8626 27.7922 28.4899 27.6074 28.2096Z" fill="#00B2A0"/>
<path d="M31.8792 19.9104C30.6435 19.9792 29.4075 20.0452 28.1718 20.1102C27.0599 20.1688 27.0599 21.8737 28.1718 21.9325C29.4078 21.9979 30.6435 22.0639 31.8792 22.132C33.236 22.2075 33.236 19.8355 31.8792 19.9104Z" fill="#00B2A0"/>
<path d="M31.8797 7.09895C30.7587 7.07429 29.8526 8.49614 29.1809 9.32207C28.459 10.2093 27.8247 11.1709 27.0887 12.0465C26.5265 12.7155 27.3932 13.6419 28.02 13.0299C28.762 12.3048 29.4358 11.5079 30.148 10.751C30.5503 10.3237 30.9666 9.89334 31.4231 9.53047C31.9845 9.08499 32.4256 8.9404 32.6752 8.20141C32.8606 7.65296 32.3836 7.11005 31.8797 7.09895Z" fill="#00B2A0"/>
<path d="M26.4932 1.2963C25.8297 1.74579 25.3871 2.47583 24.9312 3.14329C24.3996 3.92143 23.8943 4.70327 23.2795 5.41296C22.5833 6.21669 23.6663 7.3731 24.4139 6.611C24.9942 6.01907 25.508 5.37381 26.0116 4.70912C26.5522 3.99573 27.2493 3.34245 27.6942 2.56431C28.1408 1.78371 27.2417 0.789458 26.4932 1.2963Z" fill="#00B2A0"/>
<path d="M18.2032 0.226597C17.8798 -0.0755323 17.4565 -0.0755323 17.133 0.226597C16.4981 0.819757 16.7909 1.85532 16.8437 2.64486C16.9045 3.55064 16.9696 4.45548 17.0475 5.36002C17.1202 6.20352 18.216 6.20352 18.2887 5.36002C18.3667 4.45517 18.4318 3.55094 18.4925 2.64486C18.5453 1.85563 18.8381 0.819449 18.2032 0.226597Z" fill="#00B2A0"/>
</svg>
